# xmcd
#
# Track frame offsets:
#	150
#	18227
#	38395
#	59907
#	85357
#	110294
#	128679
#	150052
#	167978
#	188656
#
# Disc length: 2682 seconds
#
# Revision: 4070548255
# Processed by: cddbd v1.5.2PL0 Copyright (c) Steve Scherf et al.
# Submitted via: EZCDAudioConverter 8.3.2.1
#
DISCID=700a780a
DTITLE=Various Artist - A Celebration of Blues - The Great Singers Vol 3
DYEAR=1999
DGENRE=Blues
TTITLE0=Cicero Blake - You're the Keeper of My Flame
TTITLE1=Dorothy Moore - More Than Just Another Hurt
TTITLE2=Little Milton - His Old Lady and My Old Lady
TTITLE3=Latimore - The Only Way Is Up
TTITLE4=Artie White - Man of the House
TTITLE5=Willie Clayton - Bartender Blues
TTITLE6=Mel Waiters - Sex- Or Make Love
TTITLE7=Ernie Johnson - Don't Waste My Time
TTITLE8=James Peterson - Lost What I Had
TTITLE9=ZZ Hill - Blind Side
EXTD=
EXTT0=
EXTT1=
EXTT2=
EXTT3=
EXTT4=
EXTT5=
EXTT6=
EXTT7=
EXTT8=
EXTT9=
PLAYORDER=
